# xmcd
#
# Track frame offsets: 
#        150
#        3291
#        22700
#        41824
#        65538
#        89491
#        122065
#        143149
#        166446
#
# Disc length: 2700 seconds
#
# Revision: 2
# Processed by: cddbd v1.5.2PL0 Copyright (c) Steve Scherf et al.
# Submitted via: ExactAudioCopy v0.99pb5
#
DISCID=6f0a8a09
DTITLE=Trauma - (2007) Neurotic Mass
DYEAR=2007
DGENRE=Death Metal
TTITLE0=Intro Monument
TTITLE1=Greed
TTITLE2=Altar Of Vanity
TTITLE3=The Eternal Quest
TTITLE4=Unexpected Lie
TTITLE5=Neurotic Mass
TTITLE6=Immolated
TTITLE7=Edge Of Vegetation
TTITLE8=Dead Macrocosm
EXTD=www.empire-records.com.pl
EXTT0=
EXTT1=
EXTT2=
EXTT3=
EXTT4=
EXTT5=
EXTT6=
EXTT7=
EXTT8=
PLAYORDER=
